<svg width="124" height="42" viewBox="0 0 124 42" fill="none" xmlns="http://www.w3.org/2000/svg">
<path fill-rule="evenodd" clip-rule="evenodd" d="M33.375 12.1455C33.7852 11.749 34.1577 11.5508 34.4927 11.5508C34.8276 11.5508 34.9951 11.6089 34.9951 11.7251C34.9951 11.8413 34.937 11.9268 34.8208 11.9814C34.7046 12.0361 34.5713 12.1113 34.4209 12.207L33.8672 12.5762C33.6348 12.7402 33.3613 12.9863 33.0469 13.3145C32.2949 14.1211 31.748 14.7295 31.4062 15.1396C30.4082 16.3838 29.6084 17.416 29.0068 18.2363L24.4336 24.5322C20.9609 29.3721 17.3721 33.5078 13.667 36.9395L10.0781 40.1182L11.6572 39.1953C12.833 38.4844 13.9268 37.7188 14.9385 36.8984L17.8506 34.4785L20.9678 31.6074L29.8271 23.0352C33.2315 19.9043 35.5146 17.8535 36.6768 16.8828C38.8643 15.0918 40.2519 13.9844 40.8398 13.5605C42.8359 12.084 43.9468 11.3457 44.1724 11.3457C44.3979 11.3457 44.5107 11.4414 44.5107 11.6328C44.5107 11.7559 44.374 11.8857 44.1006 12.0225L43.3418 12.4326C42.125 13.0479 41.0859 14.0117 40.2246 15.3242C39.3633 16.6367 38.5566 17.9424 37.8047 19.2412L35.4463 23.2812L32.9238 27.4238C32.0625 28.791 31.3721 29.8301 30.8525 30.541L25.8076 37.1035L30.627 32.1201L35.0566 27.752L41.7012 21.415C46.6367 16.7392 50.6904 13.834 53.8623 12.6992C55.0107 12.2891 56.1865 12.084 57.3896 12.084C58.5928 12.084 59.5977 12.3232 60.4043 12.8018C61.2109 13.2803 61.6143 13.9912 61.6143 14.9346C61.6143 16.083 61.0947 17.0469 60.0557 17.8262C59.085 18.5645 57.875 18.9336 56.4258 18.9336C55.6191 18.9336 54.9287 18.7969 54.3545 18.5234C53.3154 18.0039 52.7959 17.5254 52.7959 17.0879C52.7959 16.6504 52.9668 16.4316 53.3086 16.4316C53.5 16.4316 53.6265 16.4761 53.688 16.5649C53.7495 16.6538 53.8042 16.8315 53.8521 17.0981C53.8999 17.3647 54.0264 17.5869 54.2314 17.7646C54.4365 17.9424 54.6689 18.0859 54.9287 18.1953C55.4072 18.4141 55.8721 18.5234 56.3232 18.5234C56.7744 18.5234 57.2427 18.4482 57.728 18.2979C58.2134 18.1475 58.6611 17.9219 59.0713 17.6211C60.0283 16.9375 60.5068 16.0557 60.5068 14.9756C60.5068 14.1826 60.1377 13.5879 59.3994 13.1914C58.7978 12.877 58.0903 12.7197 57.2769 12.7197C56.4634 12.7197 55.7422 12.7881 55.1133 12.9248C54.4844 13.0615 53.7974 13.2974 53.0522 13.6323C52.3071 13.9673 51.4971 14.4082 50.6221 14.9551C49.7471 15.502 48.7764 16.1855 47.71 17.0059C45.5088 18.6738 43.4307 20.458 41.4756 22.3584L34.1338 29.4746L30.6064 32.9609L26.2383 37.4932C24.2148 39.5986 22.4033 40.9795 20.8037 41.6357C20.4072 41.7998 20.127 41.8818 19.9629 41.8818C19.7031 41.8818 19.5732 41.7725 19.5732 41.5537C19.5732 41.3896 19.7578 41.2461 20.127 41.123C20.4961 41 20.8071 40.8804 21.0601 40.7642C21.313 40.6479 21.5557 40.501 21.7881 40.3232C22.0205 40.1455 22.2563 39.9131 22.4956 39.626C22.7349 39.3389 22.998 38.9731 23.2852 38.5288C23.5723 38.0845 23.9072 37.5342 24.29 36.8779C26.3545 33.2685 27.7422 30.8965 28.4531 29.7617C30.0664 27.2871 31.085 25.7559 31.5088 25.168L39.1377 15.6523L36.6562 17.5391C35.7539 18.2363 34.8994 18.9746 34.0928 19.7539L24.3311 29.29L19.2451 34.0068C15.5537 37.3428 12.3955 39.6123 9.77051 40.8154L8.99121 41.1641C7.99316 41.6426 7.33692 41.8818 7.02246 41.8818C6.70801 41.8818 6.55078 41.7793 6.55078 41.5742C6.55078 41.4102 6.8584 41.2393 7.47363 41.0615C8.1709 40.9795 8.7998 40.6719 9.36035 40.1387C10.3311 39.2227 11.3428 37.999 12.3955 36.4678L16.292 30.8691L17.9736 28.6338C19.6963 26.4326 20.9473 24.8877 21.7266 23.999C23.5859 21.9346 25.0215 20.3965 26.0332 19.3848C30.5313 14.9414 32.9785 12.5283 33.375 12.1455ZM0.316406 22.9326C0.124999 22.9326 0.0292969 22.8232 0.0292969 22.6045C0.0292969 21.8662 0.418941 20.8887 1.19824 19.6719C2.03223 18.3867 3.19433 17.2383 4.68457 16.2266C7.09083 14.5859 9.5996 13.7656 12.2109 13.7656C14.0703 13.7656 16.2031 14.1826 18.6094 15.0166L20.3115 15.6113C21.6787 16.0762 22.7451 16.3086 23.5107 16.3086C24.2764 16.3086 24.9053 16.2573 25.3975 16.1548C25.8897 16.0522 26.4092 15.8984 26.9561 15.6934C28.1865 15.2422 29.1504 14.7261 29.8477 14.145C30.5449 13.564 30.9414 13.2734 31.0371 13.2734C31.1328 13.2734 31.1807 13.3145 31.1807 13.3965C31.1807 13.5195 30.9346 13.7998 30.4424 14.2373C29.9502 14.6748 29.3452 15.126 28.6274 15.5908C27.9097 16.0557 27.1953 16.4316 26.4844 16.7188C25.1855 17.2246 24.02 17.4775 22.9878 17.4775C21.9556 17.4775 21.1831 17.4502 20.6704 17.3955C20.1577 17.3408 19.6416 17.2656 19.1221 17.1699C18.2607 16.9922 17.3482 16.7461 16.3843 16.4316C15.4204 16.1172 14.7505 15.9087 14.3745 15.8062C13.9985 15.7036 13.6397 15.625 13.2979 15.5703C12.6279 15.4473 11.8931 15.3857 11.0933 15.3857C10.2935 15.3857 9.46631 15.4849 8.61182 15.6831C7.75732 15.8813 6.92676 16.165 6.12012 16.5342C3.75487 17.6279 2.09375 19.1113 1.13672 20.9844C0.876952 21.5039 0.74707 21.9141 0.74707 22.2148C0.74707 22.6934 0.603517 22.9326 0.316406 22.9326ZM45.6387 41.041C44.2715 41.041 43.5879 40.6172 43.5879 39.7695C43.5879 39.0723 43.9844 38.1973 44.7773 37.1445L46.0693 35.5039L45.8643 35.4219C43.5674 38.252 41.4004 40.0293 39.3633 40.7539C38.8027 40.9453 38.3174 41.041 37.9072 41.041C36.2256 41.041 35.3848 40.1455 35.3848 38.3545C35.3848 36.249 36.2256 34.2393 37.9072 32.3252C40.3955 29.4267 42.8974 27.7109 45.4131 27.1777C46.165 27.0273 46.8076 26.9521 47.3408 26.9521C47.874 26.9521 48.2944 26.9897 48.6021 27.0649C48.9097 27.1401 49.1797 27.2461 49.4121 27.3828C49.9043 27.6973 50.1504 28.0835 50.1504 28.5415C50.1504 28.9995 50.0684 29.4336 49.9043 29.8438L51.9141 27.3623C52.2832 27.4717 52.625 27.5264 52.9395 27.5264C53.7461 27.5264 54.3271 27.499 54.6826 27.4443L47.7715 35.7705C46.1309 37.6846 45.3105 39.0312 45.3105 39.8105C45.3105 40.248 45.5703 40.4668 46.0898 40.4668C46.6094 40.4668 47.2075 40.3096 47.8843 39.9951C48.561 39.6807 49.2344 39.2773 49.9043 38.7852C50.5742 38.293 51.227 37.7461 51.8628 37.1445C52.4985 36.543 53.0864 35.9551 53.6265 35.3809C54.1665 34.8066 54.6416 34.2734 55.0518 33.7812L56.0361 32.6738L56.4668 33.0225L55.4209 34.2119C51.4834 38.7647 48.2227 41.041 45.6387 41.041ZM39.958 33.6582C38.0303 35.9961 37.0664 37.9101 37.0664 39.4004C37.0664 40.084 37.374 40.4258 37.9893 40.4258C39.9854 40.4258 42.8633 38.2178 46.623 33.8018L48.3457 31.7305C49.166 30.4863 49.5762 29.584 49.5762 29.0234C49.5762 28.0664 49.0977 27.5879 48.1406 27.5879C46.8418 27.5879 44.9756 28.6953 42.542 30.9102C41.708 31.6758 40.8467 32.5918 39.958 33.6582ZM104.927 39.2363C104.065 39.7832 103.132 40.2344 102.127 40.5898C101.123 40.9453 100.169 41.123 99.2666 41.123C98.3643 41.123 97.6772 41.0308 97.2056 40.8462C96.7339 40.6616 96.3477 40.4053 96.0469 40.0771C94.7617 38.6826 94.7685 36.625 96.0674 33.9043C96.6279 32.7012 97.4756 31.604 98.6104 30.6128C99.7451 29.6216 100.743 28.8799 101.604 28.3877C103.272 27.4307 104.838 26.9521 106.301 26.9521C107.75 26.9521 108.509 27.4033 108.577 28.3057C108.673 29.7686 106.896 31.3613 103.245 33.084C101.905 33.7129 100.217 34.3623 98.1797 35.0322C97.373 36.3447 96.9697 37.4145 96.9697 38.2417C96.9697 39.0689 97.1851 39.6567 97.6157 40.0054C98.0464 40.354 98.6753 40.5283 99.5024 40.5283C100.33 40.5283 101.225 40.3506 102.189 39.9951C103.153 39.6396 104.055 39.1885 104.896 38.6416C105.737 38.0947 106.499 37.5 107.183 36.8574C107.866 36.2148 108.471 35.5996 108.998 35.0117C109.524 34.4238 109.955 33.9146 110.29 33.4839C110.625 33.0532 110.854 32.7832 110.977 32.6738L111.407 33.0225C111.229 33.1729 110.959 33.4805 110.597 33.9453C110.235 34.4102 109.777 34.9399 109.223 35.5347C108.669 36.1294 108.034 36.7549 107.316 37.4111C106.598 38.0674 105.802 38.6758 104.927 39.2363ZM98.6514 34.3145C102.78 32.8652 105.439 31.4229 106.629 29.9873C107.025 29.5088 107.224 29.0439 107.224 28.5928C107.224 27.8271 106.868 27.4443 106.157 27.4443C104.899 27.4443 103.327 28.5449 101.44 30.7461C100.128 32.2774 99.1982 33.4668 98.6514 34.3145Z" fill="white"/>
<path fill-rule="evenodd" clip-rule="evenodd" d="M53.8418 39.8105C53.8418 40.2207 54.1699 40.4326 54.8262 40.4463C55.4824 40.46 56.1421 40.3164 56.8052 40.0156C57.4683 39.7148 58.1279 39.332 58.7842 38.8672C59.4404 38.4023 60.0762 37.8794 60.6914 37.2983C61.3066 36.7173 61.8809 36.1397 62.4141 35.5654C62.9473 34.9912 63.4258 34.4512 63.8496 33.9453L64.916 32.6738L65.3672 33.0225L64.3008 34.2529C60.4863 38.7783 57.2803 41.041 54.6826 41.041C53.9307 41.041 53.3667 40.8906 52.9907 40.5898C52.6147 40.2891 52.4268 39.9609 52.4268 39.6055C52.4268 39.25 52.4438 38.9561 52.478 38.7236C52.5122 38.4912 52.584 38.2349 52.6934 37.9546C52.8027 37.6743 52.9634 37.3428 53.1753 36.96C53.3872 36.5771 53.6709 36.1123 54.0264 35.5654L57.2256 30.9512L62.5166 23.5068H60.8965C60.4863 23.5068 60.2812 23.4077 60.2812 23.2095C60.2812 23.0112 60.541 22.9121 61.0605 22.9121H62.9268L66.7207 17.5801C67.6777 17.7305 68.6279 17.7305 69.5713 17.5801L65.6133 22.9121H70.9043C71.2871 22.9121 71.4785 23.0112 71.4785 23.2095C71.4785 23.4077 71.3076 23.5068 70.9658 23.5068H65.1621L56.6719 35.0527C55.209 37.1172 54.3716 38.3887 54.1597 38.8672C53.9478 39.3457 53.8418 39.6602 53.8418 39.8105Z" fill="white"/>
<path fill-rule="evenodd" clip-rule="evenodd" d="M75.3545 28.6748C75.3271 27.8818 74.8281 27.4853 73.8574 27.4853C71.875 27.4853 69.3115 29.5498 66.167 33.6787C64.8682 35.4014 64.2188 36.9599 64.2188 38.3545C64.2188 38.956 64.3828 39.4141 64.7109 39.7285C65.2852 40.2617 66.02 40.5283 66.9155 40.5283C67.811 40.5283 68.7612 40.3437 69.7661 39.9746C70.771 39.6055 71.7041 39.1406 72.5654 38.5801C73.4268 38.0195 74.2129 37.4077 74.9238 36.7446C75.6348 36.0815 76.25 35.4595 76.7695 34.8784C77.2891 34.2974 77.6992 33.8018 78 33.3916C78.3008 32.9814 78.4785 32.7422 78.5332 32.6738L78.9844 33.0225L78.4307 33.7607C75.8603 37.1377 72.9893 39.4004 69.8174 40.5488C68.751 40.9316 67.7461 41.123 66.8027 41.123C65.8594 41.123 65.1211 41.0273 64.5879 40.8359C64.0547 40.6445 63.6104 40.3848 63.2549 40.0566C62.5713 39.3867 62.2295 38.5527 62.2295 37.5547C62.2295 35.5996 63.0771 33.6104 64.7725 31.5869C66.0986 30.001 67.6709 28.7842 69.4893 27.9365C70.9658 27.2529 72.4014 26.9248 73.7959 26.9521C75.0264 26.9932 75.8057 27.4101 76.1338 28.2031C76.4619 29.0098 76.2842 29.748 75.6006 30.418C75.1494 30.8828 74.7119 31.1152 74.2881 31.1152C73.3037 31.1152 72.7979 30.7119 72.7705 29.9053C72.7568 29.5224 72.9038 29.2046 73.2114 28.9517C73.519 28.6987 73.8232 28.5586 74.124 28.5312C74.5615 28.5039 74.9717 28.5791 75.3545 28.7568V28.6748Z" fill="white"/>
<path fill-rule="evenodd" clip-rule="evenodd" d="M76.0723 40.6104C75.7031 40.542 75.293 40.5078 74.8418 40.5078C74.0625 40.5078 73.4199 40.5762 72.9141 40.7129L95.6162 8.29004C96.5322 8.42676 97.4824 8.42676 98.4668 8.29004L78.123 36.5293L78.2256 36.7549C79.2647 35.5518 80.2285 34.4854 81.1172 33.5557L83.5576 31.0947C84.9522 29.7412 86.0801 28.7842 86.9414 28.2236C88.2402 27.376 89.4707 26.9521 90.6328 26.9521C91.8496 26.9521 92.6152 27.3896 92.9297 28.2646C93.5449 29.96 91.624 33.2002 87.167 37.9854L86.3672 38.8672C85.9297 39.3594 85.7109 39.7353 85.7109 39.9951C85.7109 40.1318 85.8613 40.2446 86.1621 40.3335C86.4629 40.4224 86.8867 40.4668 87.4336 40.4668C87.9805 40.4668 88.623 40.2925 89.3613 39.9438C90.0996 39.5952 90.8174 39.1543 91.5146 38.6211C92.2119 38.0879 92.875 37.5 93.5039 36.8574C94.1328 36.2148 94.6968 35.6064 95.1958 35.0322C95.6948 34.458 96.1152 33.9522 96.457 33.5146C96.7988 33.0771 97.0312 32.7969 97.1543 32.6738L97.6055 33.0225C97.4688 33.1729 97.2192 33.4736 96.8569 33.9248C96.4946 34.376 96.0503 34.8989 95.5239 35.4937C94.9976 36.0884 94.4028 36.7139 93.7397 37.3701C93.0767 38.0264 92.3691 38.6211 91.6172 39.1543C89.8945 40.4121 88.3291 41.041 86.9209 41.041C85.7998 41.041 84.9727 40.7334 84.4395 40.1182C84.2754 39.9268 84.1934 39.7012 84.1934 39.4414C84.1934 39.1816 84.231 38.8843 84.3062 38.5493C84.3813 38.2144 84.5693 37.7871 84.8701 37.2676C85.5674 36.0918 86.4902 34.8579 87.6387 33.5659C88.7871 32.2739 89.5459 31.3955 89.915 30.9307C90.2842 30.4658 90.5781 30.0625 90.7969 29.7207C91.207 29.0644 91.4121 28.5586 91.4121 28.2031C91.4121 27.7109 91.0908 27.4648 90.4482 27.4648C89.5869 27.4648 88.5957 27.8477 87.4746 28.6133C84.7539 30.4317 81.582 33.5967 77.959 38.1084L76.0723 40.6104Z" fill="white"/>
<path fill-rule="evenodd" clip-rule="evenodd" d="M117.149 37.2266C117.313 37.2539 117.522 37.2676 117.775 37.2676C118.028 37.2676 118.332 37.1719 118.688 36.9805C119.043 36.7891 119.409 36.543 119.785 36.2422C120.161 35.9414 120.533 35.6099 120.902 35.2476C121.271 34.8853 121.61 34.5366 121.917 34.2017C122.225 33.8667 122.495 33.5625 122.728 33.2891L123.199 32.6738L123.65 33.0225C123.486 33.1865 123.274 33.4121 123.015 33.6992L122.153 34.6836C120.253 36.7344 118.749 37.7598 117.642 37.7598H117.293C117.184 37.7598 117.074 37.7461 116.965 37.7188C115.816 40.2207 113.376 41.4717 109.644 41.4717C108.017 41.4717 106.834 41.082 106.096 40.3027C105.781 39.9609 105.624 39.5234 105.624 38.9902C105.624 38.457 105.75 38.0024 106.003 37.6265C106.256 37.2505 106.554 36.9395 106.896 36.6934C107.593 36.1875 108.218 35.9346 108.772 35.9346C109.326 35.9346 109.603 36.1943 109.603 36.7139C109.562 37.0693 109.261 37.3359 108.7 37.5137C108.522 37.5684 108.348 37.5957 108.177 37.5957C108.006 37.5957 107.842 37.5376 107.685 37.4214C107.528 37.3052 107.401 37.2197 107.306 37.165C107.224 37.2471 107.118 37.3428 106.988 37.4521C106.858 37.5615 106.731 37.6914 106.608 37.8418C106.308 38.2109 106.157 38.5903 106.157 38.98C106.157 39.3696 106.287 39.6807 106.547 39.9131C106.807 40.1455 107.114 40.3232 107.47 40.4463C108.003 40.6377 108.56 40.7334 109.141 40.7334C109.722 40.7334 110.324 40.6104 110.946 40.3643C111.568 40.1182 112.18 39.708 112.781 39.1338C114.436 37.5615 115.331 35.2305 115.468 32.1406C115.55 30.0625 115.803 28.4356 116.227 27.2598C116.24 27.2187 116.247 27.1572 116.247 27.0752L111.407 33.0225C111.134 33.3506 110.932 33.5625 110.802 33.6582L110.607 33.8018C110.443 33.8154 110.334 33.7744 110.279 33.6787C110.252 33.6104 110.313 33.4805 110.464 33.2891C113.991 29.0781 115.974 26.6855 116.411 26.1113C116.63 25.0449 116.985 24.5117 117.478 24.5117C117.71 24.5117 117.905 24.5732 118.062 24.6963C118.219 24.8193 118.298 24.9766 118.298 25.168C118.284 25.4277 118.076 25.7935 117.672 26.2651C117.269 26.7368 117.023 27.0376 116.934 27.1675C116.845 27.2974 116.787 27.4067 116.76 27.4956C116.732 27.5845 116.719 27.6699 116.719 27.752V27.998C116.705 28.3672 116.739 28.8047 116.821 29.3105L117.334 32.7148C117.635 34.5742 117.573 36.0781 117.149 37.2266Z" fill="white"/>
<path fill-rule="evenodd" clip-rule="evenodd" d="M73.0537 16.0195C72.4027 16.0195 72.0771 15.8177 72.0771 15.4141C72.0771 15.082 72.2659 14.6654 72.6436 14.1641L73.2588 13.3828L73.1611 13.3438C72.0674 14.6914 71.0355 15.5378 70.0654 15.8828C69.7985 15.974 69.5674 16.0195 69.3721 16.0195C68.5713 16.0195 68.1709 15.5931 68.1709 14.7402C68.1709 13.7376 68.5713 12.7806 69.3721 11.8691C70.557 10.4889 71.7484 9.67188 72.9463 9.41797C73.3044 9.34635 73.6104 9.31055 73.8643 9.31055C74.1182 9.31055 74.3184 9.32845 74.4648 9.36426C74.6113 9.40007 74.7399 9.45052 74.8506 9.51562C75.085 9.66537 75.2021 9.84928 75.2021 10.0674C75.2021 10.2855 75.1631 10.4922 75.085 10.6875L76.042 9.50586C76.2178 9.55794 76.3805 9.58398 76.5303 9.58398C76.9144 9.58398 77.1911 9.57096 77.3604 9.54492L74.0693 13.5098C73.2881 14.4212 72.8975 15.0625 72.8975 15.4336C72.8975 15.6419 73.0212 15.7461 73.2686 15.7461C73.516 15.7461 73.8008 15.6712 74.123 15.5215C74.4453 15.3717 74.7659 15.1797 75.085 14.9453C75.404 14.7109 75.7148 14.4505 76.0176 14.1641C76.3203 13.8776 76.6003 13.5977 76.8574 13.3242C77.1146 13.0508 77.3408 12.7969 77.5361 12.5625L78.0049 12.0352L78.21 12.2012L77.7119 12.7676C75.8369 14.9356 74.2842 16.0195 73.0537 16.0195ZM70.3486 12.5039C69.4307 13.6172 68.9717 14.5286 68.9717 15.2383C68.9717 15.5638 69.1182 15.7266 69.4111 15.7266C70.3617 15.7266 71.7321 14.6751 73.5225 12.5723L74.3428 11.5859C74.7334 10.9935 74.9287 10.5638 74.9287 10.2969C74.9287 9.84114 74.7008 9.61328 74.2451 9.61328C73.6266 9.61328 72.738 10.1406 71.5791 11.1953C71.182 11.5599 70.7718 11.9961 70.3486 12.5039Z" fill="#DBA37A"/>
<path fill-rule="evenodd" clip-rule="evenodd" d="M76.9893 15.4238C76.9893 15.6387 77.1455 15.7461 77.458 15.7461C77.7705 15.7461 78.1042 15.6631 78.459 15.4971C78.8138 15.3311 79.1654 15.1211 79.5137 14.8672C79.862 14.6133 80.1989 14.335 80.5244 14.0322C80.8499 13.7295 81.1462 13.4414 81.4131 13.168L82.0869 12.4453C82.2692 12.237 82.3929 12.1003 82.458 12.0352L82.6533 12.2012C82.5817 12.2728 82.4499 12.416 82.2578 12.6309C82.0658 12.8457 81.8314 13.0931 81.5547 13.373C81.278 13.653 80.9688 13.9492 80.627 14.2617C80.2852 14.5742 79.9287 14.8607 79.5576 15.1211C78.6917 15.7201 77.9333 16.0195 77.2822 16.0195C77.0088 16.0195 76.7826 15.9447 76.6035 15.7949C76.4245 15.6452 76.335 15.4841 76.335 15.3115C76.335 15.139 76.3431 15.0007 76.3594 14.8965C76.3757 14.7923 76.4098 14.6735 76.4619 14.54C76.514 14.4066 76.5889 14.2503 76.6865 14.0713C76.7842 13.8923 76.9144 13.6758 77.0771 13.4219L78.5713 11.2148L86.1201 0.423828C86.5889 0.488933 87.0413 0.488933 87.4775 0.423828C81.2666 9.05668 78.0505 13.5374 77.8291 13.8662C77.6077 14.195 77.445 14.4424 77.3408 14.6084C77.2367 14.7744 77.1585 14.9095 77.1064 15.0137C77.0283 15.1699 76.9893 15.3066 76.9893 15.4238Z" fill="#DBA37A"/>
<path fill-rule="evenodd" clip-rule="evenodd" d="M81.4424 15.4238C81.4424 15.6387 81.5986 15.7461 81.9111 15.7461C82.2236 15.7461 82.5573 15.6631 82.9121 15.4971C83.2669 15.3311 83.6185 15.1211 83.9668 14.8672C84.3151 14.6133 84.652 14.335 84.9775 14.0322C85.3031 13.7295 85.5993 13.4414 85.8662 13.168L86.54 12.4453C86.7223 12.237 86.846 12.1003 86.9111 12.0352L87.1064 12.2012C87.0348 12.2728 86.903 12.416 86.7109 12.6309C86.5189 12.8457 86.2845 13.0931 86.0078 13.373C85.7311 13.653 85.4219 13.9492 85.0801 14.2617C84.7383 14.5742 84.3818 14.8607 84.0107 15.1211C83.1449 15.7201 82.3864 16.0195 81.7354 16.0195C81.4619 16.0195 81.2357 15.9447 81.0566 15.7949C80.8776 15.6452 80.7881 15.4841 80.7881 15.3115C80.7881 15.139 80.7962 15.0007 80.8125 14.8965C80.8288 14.7923 80.863 14.6735 80.915 14.54C80.9671 14.4066 81.042 14.2503 81.1396 14.0713C81.2373 13.8923 81.3675 13.6758 81.5303 13.4219L83.0244 11.2148L90.5732 0.423828C91.042 0.488933 91.4945 0.488933 91.9307 0.423828C85.7197 9.05668 82.5036 13.5374 82.2822 13.8662C82.0609 14.195 81.8981 14.4424 81.7939 14.6084C81.6898 14.7744 81.6117 14.9095 81.5596 15.0137C81.4814 15.1699 81.4424 15.3066 81.4424 15.4238Z" fill="#DBA37A"/>
</svg>
