<svg width="18" height="18" fill="none" xmlns="http://www.w3.org/2000/svg">
	<mask id="a" fill="#BCBCBC">
		<path fill-rule="evenodd" clip-rule="evenodd" d="M17.24 5.898a.86.86 0 0 1 .721.598c.1.323 0 .671-.224.87L14.03 11l.871 5.127c.05.348-.074.672-.348.87a.826.826 0 0 1-.523.175.818.818 0 0 1-.423-.1L9.002 14.66l-4.629 2.438a.88.88 0 0 1-.92-.074.911.911 0 0 1-.35-.871l.872-5.127L.267 7.391c-.25-.223-.324-.572-.224-.895.1-.324.398-.548.721-.598l5.152-.746L8.206.498a.887.887 0 0 1 1.592 0l2.29 4.654 5.152.746zm-4.231 5.227a.892.892 0 0 1 .249-.772l3.608-3.509-4.977-.722a.847.847 0 0 1-.672-.473L9.002 1.145 6.787 5.649a.904.904 0 0 1-.672.473l-4.977.722 3.583 3.51c.2.198.3.472.25.77l-.847 4.953 4.455-2.34a.95.95 0 0 1 .821 0l4.455 2.34-.846-4.952z"/>
	</mask>
	<path fill-rule="evenodd" clip-rule="evenodd" d="M17.24 5.898a.86.86 0 0 1 .721.598c.1.323 0 .671-.224.87L14.03 11l.871 5.127c.05.348-.074.672-.348.87a.826.826 0 0 1-.523.175.818.818 0 0 1-.423-.1L9.002 14.66l-4.629 2.438a.88.88 0 0 1-.92-.074.911.911 0 0 1-.35-.871l.872-5.127L.267 7.391c-.25-.223-.324-.572-.224-.895.1-.324.398-.548.721-.598l5.152-.746L8.206.498a.887.887 0 0 1 1.592 0l2.29 4.654 5.152.746zm-4.231 5.227a.892.892 0 0 1 .249-.772l3.608-3.509-4.977-.722a.847.847 0 0 1-.672-.473L9.002 1.145 6.787 5.649a.904.904 0 0 1-.672.473l-4.977.722 3.583 3.51c.2.198.3.472.25.77l-.847 4.953 4.455-2.34a.95.95 0 0 1 .821 0l4.455 2.34-.846-4.952z" fill="#BCBCBC"/>
	<path d="M17.24 5.898l-.144.99h.002l.142-.99zm.497 1.469l-.664-.748-.018.016-.017.017.7.715zM14.03 11l-.7-.714-.373.366.087.516.986-.168zm.871 5.127l.99-.141-.002-.014-.002-.013-.986.168zm-.348.87l-.588-.808-.027.02-.025.02.64.769zm-.946.076l.515-.858-.025-.015-.026-.013-.464.886zm-4.604-2.415l.464-.885-.465-.244-.465.245.466.885zm-4.629 2.44l.447.894.01-.005.01-.005-.467-.884zm-1.27-.946l-.985-.168-.001.008-.002.008.989.152zm.872-5.127l.986.168.087-.516-.373-.366-.7.714zM.267 7.391l.7-.714-.016-.015-.015-.014-.67.743zm.497-1.493l-.143-.99-.009.002.152.988zm5.152-.746l.143.99.522-.076.232-.473-.897-.441zM8.206.498L7.31.05l-.003.005.898.442zm1.592 0l.898-.442-.003-.005-.895.447zm2.29 4.654l-.897.441.232.473.522.075.143-.99zm1.17 5.201l-.697-.717-.01.01.707.707zm-.25.772l.987-.169-.002-.01-.984.179zm3.858-4.281l.698.717 1.455-1.415-2.01-.292-.143.99zm-4.977-.722l.143-.99-.03-.004-.03-.002-.083.996zm-.672-.473l-.897.442.003.006.894-.448zM9.002 1.145l.897-.441-.897-1.825L8.105.704l.897.44zM6.787 5.649l.895.448.002-.006-.897-.442zm-.672.473l.144.99.01-.002.01-.001-.164-.987zm-4.977.722l-.144-.99-2 .29L.438 7.558l.7-.714zm3.583 3.51l.708-.708-.008-.007-.7.714zm.25.77l.985.169v-.004l-.986-.164zm-.847 4.953l-.986-.168-.34 1.994 1.791-.94-.465-.886zm4.455-2.34l-.447-.894-.01.005-.008.004.465.886zm.821 0l.465-.885-.009-.004-.009-.005-.447.895zm4.455 2.34l-.465.885 1.791.941-.34-1.994-.986.168zm5.062-9.876a1.86 1.86 0 0 0-1.536-1.293l-.283 1.98c.002 0-.016-.002-.04-.022a.166.166 0 0 1-.052-.076l1.911-.589zm-.515 1.913c.532-.473.723-1.235.515-1.913l-1.911.589a.123.123 0 0 1-.002-.069c.005-.02.021-.06.07-.102l1.328 1.495zm-3.673 3.6l3.708-3.633-1.4-1.429-3.708 3.634 1.4 1.428zm1.157 4.245l-.87-5.126-1.973.335.871 5.126 1.972-.335zm-.746 1.848c.602-.438.847-1.143.75-1.821l-1.98.282c.002.015-.002.007.008-.018a.146.146 0 0 1 .046-.06l1.176 1.617zm-1.11.365c.337 0 .786-.092 1.162-.406l-1.28-1.536a.275.275 0 0 1 .091-.053.08.08 0 0 1 .026-.005v2zm-.938-.242c.34.204.692.242.937.242v-2c-.02 0-.022-.002-.008.001a.343.343 0 0 1 .1.042l-1.03 1.715zm-4.554-2.386l4.604 2.414.928-1.771-4.604-2.414-.928 1.771zm-3.699 2.438l4.63-2.439-.933-1.77-4.63 2.44.933 1.77zm-1.975-.15a1.88 1.88 0 0 0 1.956.16l-.894-1.789a.11.11 0 0 1 .055-.01.118.118 0 0 1 .06.021l-1.177 1.617zM2.115 16c-.1.654.142 1.39.749 1.831l1.176-1.617a.138.138 0 0 1 .049.058c.004.01.005.02.003.032L2.115 16zm.874-5.143l-.871 5.127 1.972.335.87-5.126-1.971-.335zM-.433 8.107l3.708 3.633 1.4-1.428L.967 6.677l-1.4 1.429zM-.913 6.2c-.198.643-.067 1.414.51 1.934L.937 6.648c.034.03.053.07.06.1a.086.086 0 0 1 .002.042L-.913 6.2zM.612 4.91c-.646.1-1.297.55-1.525 1.291l1.911.589a.173.173 0 0 1-.051.083.058.058 0 0 1-.03.014L.611 4.91zm5.16-.748l-5.151.747.287 1.979 5.151-.747-.286-1.979zM7.309.056L5.018 4.71l1.795.883L9.103.94 7.308.056zM9.002-1c-.748 0-1.381.432-1.69 1.05L9.1.946a.093.093 0 0 1-.034.036.124.124 0 0 1-.064.019v-2zm1.69 1.05A1.887 1.887 0 0 0 9.003-1v2a.124.124 0 0 1-.064-.02.093.093 0 0 1-.034-.035l1.789-.894zm2.293 4.66L10.695.056 8.902.94l2.29 4.654 1.794-.883zm4.398.199l-5.151-.747-.287 1.98 5.151.746.287-1.98zm-4.832 4.737a1.891 1.891 0 0 0-.526 1.657l1.968-.357a.152.152 0 0 1-.002.074.097.097 0 0 1-.026.04L12.55 9.646zm3.618-3.519l-3.608 3.51 1.394 1.433 3.609-3.51-1.395-1.433zm-4.424.985l4.978.722.287-1.98-4.978-.721-.287 1.979zm-1.422-1.015c.255.51.784.964 1.483 1.022l.166-1.993a.21.21 0 0 1 .105.036.105.105 0 0 1 .034.04l-1.788.895zm-2.218-4.51L10.32 6.09l1.794-.883L9.9.704l-1.794.882zm-.42 4.504l2.214-4.505L8.105.704 5.89 5.208l1.794.883zM6.28 7.109a1.903 1.903 0 0 0 1.402-1.012l-1.79-.895c.035-.068.077-.07.059-.066l.329 1.973zm-4.999.725l4.978-.722-.287-1.98-4.978.722.287 1.98zm4.14 1.805l-3.584-3.51L.438 7.56l3.584 3.509 1.4-1.43zm.536 1.65a1.869 1.869 0 0 0-.528-1.643L4.014 11.06a.113.113 0 0 1-.023-.042.129.129 0 0 1-.007-.058l1.973.329zm-.847 4.957l.846-4.953-1.971-.337-.847 4.953 1.972.336zm3.004-3.394l-4.455 2.34.93 1.77 4.455-2.339-.93-1.77zm1.733-.009a1.95 1.95 0 0 0-1.715 0l.894 1.79a.131.131 0 0 1-.03.01l-.006.001h-.007a.131.131 0 0 1-.03-.012l.894-1.789zm4.473 2.349l-4.455-2.34-.93 1.771 4.455 2.34.93-1.771zm-2.297-3.899l.846 4.953 1.972-.337-.846-4.953-1.972.337z" fill="#BCBCBC" mask="url(#a)"/>
</svg>