<svg width="16" height="10" fill="none" xmlns="http://www.w3.org/2000/svg"><path fill-rule="evenodd" clip-rule="evenodd" d="M8.544 9.995c.532 0 .532-.8.532-1.11 0-.556.533-1.111 1.065-1.111.533 0 1.446.952 2.13 1.666.533.555.533.555 1.066.555h1.598S16 9.953 16 8.885c0-.348-.365-.936-1.598-2.222-1.065-1.11-1.611-.537 0-2.776.982-1.364 1.696-2.6 1.574-2.956-.118-.34-2.848-.882-3.172-.376-1.065 1.666-1.26 2.074-1.597 2.777-.533 1.11-.586 1.665-1.066 1.665-.484 0-.532-1.077-.532-1.665 0-1.836.255-3.134-.533-3.332H7.478c-.857 0-1.597.555-1.597.555s-.661.538-.533.556c.159.022 1.065-.23 1.065.555v1.11s.005 2.221-.532 2.221c-.533 0-1.598-2.22-2.663-3.886C2.799.457 2.685.555 2.152.555 1.582.555 1.088.58.555.58c-.533 0-.601.353-.533.532 1.065 2.776 1.83 4.52 3.854 6.716C5.732 9.842 6.972 9.95 8.011 9.995c.266.012 0 0 .533 0z" fill="#000"/></svg>