<svg width="16" height="16" fill="none" xmlns="http://www.w3.org/2000/svg"><path fill-rule="evenodd" clip-rule="evenodd" d="M16 11.308c0 1.384-.483 2.587-1.328 3.429-.846.842-2.053 1.263-3.381 1.263H4.709c-1.328 0-2.535-.421-3.38-1.263C.422 13.895 0 12.692 0 11.308V4.692C0 1.925 1.872 0 4.71 0h6.64c1.39 0 2.537.481 3.382 1.323C15.577 2.165 16 3.308 16 4.692v6.616zM11.014 2H4.93c-.885 0-1.66.276-2.157.774C2.276 3.272 2 4.046 2 4.931v6.083c0 .885.276 1.659.83 2.212.552.497 1.271.774 2.156.774h6.028c.885 0 1.659-.277 2.157-.774.553-.498.829-1.272.829-2.157V4.986c0-.885-.277-1.604-.774-2.157C12.673 2.276 11.954 2 11.014 2z" fill="#000"/><path fill-rule="evenodd" clip-rule="evenodd" d="M11 4c0 .563.438 1 1 1 .563 0 1-.438 1-1 0-.563-.438-1-1-1-.563 0-1 .438-1 1zm-1 4a2 2 0 1 1-4 0 2 2 0 0 1 4 0zm-2.03 4C5.753 12 4 10.177 4 8c0-2.235 1.81-4 3.97-4C10.132 4 12 5.765 12 8c0 2.235-1.81 4-4.03 4z" fill="#000"/></svg>