<svg width="124" height="42" fill="none" xmlns="http://www.w3.org/2000/svg"><path fill-rule="evenodd" clip-rule="evenodd" d="M33.375 12.146c.41-.397.783-.595 1.118-.595.335 0 .502.058.502.174 0 .116-.058.202-.174.256-.116.055-.25.13-.4.226l-.554.37c-.232.163-.506.41-.82.738a48.704 48.704 0 0 0-1.64 1.825 94.08 94.08 0 0 0-2.4 3.096l-4.573 6.296c-3.473 4.84-7.062 8.976-10.767 12.408l-3.589 3.178 1.58-.923a29.122 29.122 0 0 0 3.28-2.297l2.913-2.42 3.117-2.87 8.86-8.573c3.403-3.13 5.687-5.181 6.849-6.152 2.187-1.791 3.575-2.899 4.163-3.322 1.996-1.477 3.107-2.215 3.332-2.215.226 0 .339.095.339.287 0 .123-.137.253-.41.39l-.76.41c-1.216.615-2.255 1.579-3.116 2.891a82.295 82.295 0 0 0-2.42 3.917l-2.359 4.04-2.522 4.143c-.861 1.367-1.552 2.406-2.072 3.117l-5.044 6.562 4.819-4.983 4.43-4.368 6.644-6.337c4.936-4.676 8.99-7.581 12.161-8.716a10.415 10.415 0 0 1 3.528-.615c1.203 0 2.208.24 3.014.718.807.478 1.21 1.19 1.21 2.133 0 1.148-.52 2.112-1.558 2.891-.971.738-2.181 1.108-3.63 1.108-.807 0-1.497-.137-2.072-.41-1.039-.52-1.558-.999-1.558-1.436 0-.438.17-.656.513-.656.191 0 .318.044.379.133.061.089.116.266.164.533s.174.489.38.667c.205.177.437.32.697.43.478.22.943.328 1.394.328.451 0 .92-.075 1.405-.225.485-.15.933-.376 1.343-.677.957-.683 1.436-1.565 1.436-2.645 0-.793-.37-1.388-1.108-1.785-.601-.314-1.309-.471-2.122-.471-.814 0-1.535.068-2.164.205-.629.136-1.316.372-2.06.707a20.53 20.53 0 0 0-2.43 1.323 37.146 37.146 0 0 0-2.913 2.05 66.901 66.901 0 0 0-6.234 5.353l-7.342 7.117-3.528 3.486-4.368 4.532c-2.023 2.106-3.835 3.486-5.434 4.143-.397.164-.677.246-.841.246-.26 0-.39-.11-.39-.328 0-.164.185-.308.554-.431.37-.123.68-.243.933-.359a3.83 3.83 0 0 0 .728-.44c.232-.178.468-.41.708-.698.239-.287.502-.653.79-1.097.286-.445.621-.995 1.004-1.651 2.065-3.61 3.452-5.982 4.163-7.116 1.613-2.475 2.632-4.006 3.056-4.594l7.629-9.516-2.482 1.887a30.702 30.702 0 0 0-2.563 2.215L24.33 29.29l-5.086 4.717c-3.691 3.336-6.85 5.605-9.474 6.808l-.78.35c-.998.478-1.654.717-1.969.717-.314 0-.471-.103-.471-.308 0-.164.307-.335.923-.512.697-.082 1.326-.39 1.886-.923.971-.916 1.983-2.14 3.036-3.671l3.896-5.599 1.682-2.235c1.722-2.201 2.973-3.746 3.753-4.635 1.859-2.064 3.294-3.602 4.306-4.614a2520.72 2520.72 0 0 1 7.342-7.24zM.316 22.933c-.191 0-.287-.11-.287-.328 0-.739.39-1.716 1.17-2.933.833-1.285 1.995-2.434 3.486-3.445 2.406-1.641 4.915-2.461 7.526-2.461 1.86 0 3.992.417 6.398 1.25l1.702.595c1.368.465 2.434.698 3.2.698.765 0 1.394-.052 1.887-.154a10.655 10.655 0 0 0 1.558-.462c1.23-.45 2.194-.967 2.892-1.548.697-.581 1.093-.872 1.19-.872.095 0 .143.042.143.123 0 .123-.246.404-.739.841-.492.438-1.097.889-1.815 1.354-.717.465-1.432.84-2.143 1.128-1.299.506-2.464.758-3.496.758s-1.805-.027-2.318-.082a20.618 20.618 0 0 1-1.548-.225 25.418 25.418 0 0 1-2.738-.738 50.77 50.77 0 0 0-2.01-.626 10.257 10.257 0 0 0-1.076-.236 12.235 12.235 0 0 0-2.205-.184c-.8 0-1.627.099-2.481.297-.855.198-1.685.482-2.492.851-2.365 1.094-4.026 2.577-4.983 4.45-.26.52-.39.93-.39 1.23 0 .48-.143.719-.43.719zM45.64 41.04c-1.367 0-2.051-.424-2.051-1.271 0-.698.396-1.573 1.19-2.626l1.291-1.64-.205-.082c-2.297 2.83-4.464 4.607-6.5 5.332-.561.191-1.047.287-1.457.287-1.681 0-2.522-.895-2.522-2.686 0-2.106.84-4.116 2.522-6.03 2.489-2.898 4.99-4.614 7.506-5.147.752-.15 1.395-.226 1.928-.226.533 0 .953.038 1.261.113.308.075.578.181.81.318.492.314.738.7.738 1.159 0 .457-.082.892-.246 1.302l2.01-2.482c.37.11.711.164 1.026.164.806 0 1.387-.027 1.743-.082l-6.911 8.326c-1.641 1.915-2.462 3.261-2.462 4.04 0 .438.26.657.78.657s1.117-.157 1.794-.472c.677-.314 1.35-.718 2.02-1.21a20.59 20.59 0 0 0 1.959-1.64 42.919 42.919 0 0 0 1.764-1.764 36.088 36.088 0 0 0 1.425-1.6l.984-1.107.43.349-1.045 1.189c-3.938 4.553-7.198 6.829-9.782 6.829zm-5.681-7.383c-1.928 2.338-2.892 4.252-2.892 5.742 0 .684.308 1.026.923 1.026 1.996 0 4.874-2.208 8.634-6.624l1.723-2.072c.82-1.244 1.23-2.146 1.23-2.707 0-.957-.478-1.435-1.435-1.435-1.3 0-3.165 1.107-5.599 3.322a28.493 28.493 0 0 0-2.584 2.748zm64.969 5.578c-.862.547-1.795.998-2.8 1.354-1.004.355-1.958.533-2.86.533-.903 0-1.59-.092-2.061-.277a3.047 3.047 0 0 1-1.16-.769c-1.284-1.394-1.278-3.452.021-6.173.56-1.203 1.409-2.3 2.543-3.291 1.135-.991 2.133-1.733 2.994-2.225 1.668-.957 3.234-1.436 4.697-1.436 1.449 0 2.208.451 2.276 1.354.096 1.463-1.681 3.055-5.332 4.778-1.34.629-3.028 1.278-5.065 1.948-.807 1.313-1.21 2.383-1.21 3.21s.215 1.415.646 1.763c.43.349 1.06.523 1.886.523.828 0 1.723-.177 2.687-.533a13.54 13.54 0 0 0 2.707-1.353 16.33 16.33 0 0 0 2.287-1.785 30.606 30.606 0 0 0 3.107-3.373c.335-.43.564-.7.687-.81l.43.349c-.178.15-.448.457-.81.922-.362.465-.82.995-1.374 1.59a33.461 33.461 0 0 1-1.907 1.876 17.601 17.601 0 0 1-2.389 1.825zm-6.276-4.921c4.129-1.45 6.788-2.892 7.978-4.328.396-.478.595-.943.595-1.394 0-.766-.356-1.149-1.067-1.149-1.258 0-2.83 1.1-4.717 3.302-1.312 1.531-2.242 2.72-2.789 3.569z" fill="#fff"/><path fill-rule="evenodd" clip-rule="evenodd" d="M53.842 39.81c0 .41.328.623.984.636.656.014 1.316-.13 1.98-.43.662-.301 1.322-.684 1.978-1.149a17.577 17.577 0 0 0 1.907-1.569 37.245 37.245 0 0 0 1.723-1.733 42.616 42.616 0 0 0 1.436-1.62l1.066-1.271.451.349-1.066 1.23c-3.815 4.525-7.02 6.788-9.618 6.788-.752 0-1.316-.15-1.692-.451-.376-.3-.564-.63-.564-.985s.017-.649.051-.881a3.57 3.57 0 0 1 .215-.77c.11-.28.27-.611.482-.994.212-.383.496-.848.851-1.395l3.2-4.614 5.29-7.444h-1.62c-.41 0-.615-.1-.615-.298 0-.198.26-.297.78-.297h1.866l3.794-5.332c.957.15 1.907.15 2.85 0l-3.958 5.332h5.291c.383 0 .575.1.575.297 0 .199-.171.298-.513.298h-5.804l-8.49 11.546c-1.463 2.064-2.3 3.336-2.512 3.814-.212.479-.318.793-.318.944z" fill="#fff"/><path fill-rule="evenodd" clip-rule="evenodd" d="M75.355 28.675c-.028-.793-.527-1.19-1.498-1.19-1.982 0-4.546 2.065-7.69 6.194-1.299 1.722-1.948 3.28-1.948 4.675 0 .602.164 1.06.492 1.374.574.534 1.309.8 2.204.8.896 0 1.846-.184 2.851-.553a13.895 13.895 0 0 0 2.8-1.395 17.205 17.205 0 0 0 2.358-1.835 29.182 29.182 0 0 0 1.845-1.867c.52-.58.93-1.076 1.231-1.486.3-.41.478-.65.533-.718l.451.349-.553.738c-2.57 3.377-5.442 5.64-8.614 6.788-1.066.383-2.07.574-3.014.574s-1.682-.096-2.215-.287c-.533-.191-.978-.451-1.333-.78-.684-.67-1.026-1.503-1.026-2.501 0-1.955.848-3.945 2.543-5.968 1.327-1.586 2.899-2.803 4.717-3.65 1.477-.684 2.912-1.012 4.307-.985 1.23.041 2.01.458 2.338 1.251.328.807.15 1.545-.533 2.215-.452.465-.89.697-1.313.697-.984 0-1.49-.403-1.517-1.21-.014-.383.133-.7.44-.953.308-.253.612-.393.913-.42.438-.028.848.047 1.23.225v-.082z" fill="#fff"/><path fill-rule="evenodd" clip-rule="evenodd" d="M76.072 40.61a6.778 6.778 0 0 0-1.23-.102c-.78 0-1.422.068-1.928.205L95.616 8.29a9.954 9.954 0 0 0 2.85 0L78.124 36.53l.103.225a86.168 86.168 0 0 1 2.891-3.2l2.44-2.46c1.395-1.354 2.523-2.31 3.384-2.871 1.3-.848 2.53-1.272 3.692-1.272 1.217 0 1.982.438 2.297 1.313.615 1.695-1.306 4.935-5.763 9.72l-.8.882c-.437.492-.656.868-.656 1.128 0 .137.15.25.451.339.3.088.725.133 1.272.133s1.189-.175 1.927-.523c.739-.349 1.456-.79 2.154-1.323a18.54 18.54 0 0 0 1.989-1.764 42.272 42.272 0 0 0 1.692-1.825c.499-.574.92-1.08 1.261-1.517.342-.438.574-.718.697-.841l.452.349c-.137.15-.387.45-.75.902-.361.451-.806.974-1.332 1.569a39.32 39.32 0 0 1-1.784 1.876 16.952 16.952 0 0 1-2.123 1.784c-1.723 1.258-3.288 1.887-4.696 1.887-1.121 0-1.948-.308-2.482-.923a1.007 1.007 0 0 1-.246-.677c0-.26.038-.557.113-.892.075-.335.263-.762.564-1.281.697-1.176 1.62-2.41 2.769-3.702 1.148-1.292 1.907-2.17 2.276-2.635.37-.465.663-.869.882-1.21.41-.657.615-1.162.615-1.518 0-.492-.321-.738-.964-.738-.861 0-1.852.383-2.973 1.148-2.721 1.819-5.893 4.984-9.516 9.495l-1.887 2.502zM117.149 37.227c.164.027.373.04.626.04s.557-.095.913-.287a7.375 7.375 0 0 0 1.097-.738c.376-.3.748-.632 1.117-.994a27.84 27.84 0 0 0 1.015-1.046 32.7 32.7 0 0 0 .811-.913l.471-.615.451.349c-.164.163-.376.39-.635.676l-.862.985c-1.9 2.05-3.404 3.076-4.511 3.076h-.349a1.35 1.35 0 0 1-.328-.041c-1.149 2.502-3.589 3.753-7.321 3.753-1.627 0-2.81-.39-3.548-1.17-.315-.341-.472-.779-.472-1.312s.126-.988.379-1.364c.253-.375.551-.686.893-.933.697-.505 1.322-.758 1.876-.758.554 0 .831.26.831.779-.041.355-.342.622-.903.8a1.773 1.773 0 0 1-.523.082.816.816 0 0 1-.492-.175 4.227 4.227 0 0 0-.379-.256 5.065 5.065 0 0 1-.318.287c-.13.11-.257.24-.38.39-.3.369-.451.748-.451 1.138 0 .39.13.7.39.933.26.233.567.41.923.533.533.192 1.09.287 1.671.287s1.183-.123 1.805-.369c.622-.246 1.234-.656 1.835-1.23 1.655-1.572 2.55-3.904 2.687-6.993.082-2.078.335-3.705.759-4.881a.65.65 0 0 0 .02-.185l-4.84 5.948c-.273.328-.475.54-.605.635l-.195.144c-.164.013-.273-.028-.328-.123-.027-.069.034-.199.185-.39 3.527-4.21 5.51-6.604 5.947-7.178.219-1.066.574-1.6 1.067-1.6.232 0 .427.062.584.185.157.123.236.28.236.472-.014.26-.222.626-.626 1.097-.403.472-.649.773-.738.902-.089.13-.147.24-.174.329a.85.85 0 0 0-.041.256v.246c-.014.37.02.807.102 1.313l.513 3.404c.301 1.86.239 3.363-.185 4.512z" fill="#fff"/><path fill-rule="evenodd" clip-rule="evenodd" d="M73.054 16.02c-.651 0-.977-.202-.977-.606 0-.332.189-.749.567-1.25l.615-.781-.098-.04c-1.094 1.348-2.126 2.195-3.096 2.54a2.196 2.196 0 0 1-.693.137c-.8 0-1.201-.427-1.201-1.28 0-1.002.4-1.96 1.201-2.87 1.185-1.381 2.376-2.198 3.574-2.452.358-.072.664-.107.918-.107s.454.017.6.053c.147.036.276.087.387.152.234.15.351.333.351.551 0 .219-.039.425-.117.62l.957-1.181c.176.052.338.078.488.078.384 0 .661-.013.83-.04l-3.29 3.966c-.782.911-1.172 1.553-1.172 1.924 0 .208.123.312.37.312.248 0 .533-.075.855-.225.322-.15.643-.341.962-.576.319-.234.63-.495.933-.78.302-.287.582-.567.84-.84.257-.274.483-.528.678-.762l.469-.528.205.166-.498.567c-1.875 2.168-3.428 3.252-4.658 3.252zm-2.705-3.516c-.918 1.113-1.377 2.025-1.377 2.734 0 .326.146.489.44.489.95 0 2.32-1.052 4.11-3.155l.82-.986c.391-.593.587-1.022.587-1.29 0-.455-.228-.683-.684-.683-.618 0-1.507.528-2.666 1.582-.397.365-.807.801-1.23 1.309z" fill="#DBA37A"/><path fill-rule="evenodd" clip-rule="evenodd" d="M76.99 15.424c0 .215.156.322.468.322.313 0 .646-.083 1.001-.249a6.395 6.395 0 0 0 1.055-.63 10.98 10.98 0 0 0 1.01-.835c.326-.303.622-.59.89-.864l.673-.723c.182-.208.306-.345.371-.41l.195.166a12.78 12.78 0 0 0-.395.43c-.192.215-.427.462-.703.742-.277.28-.586.576-.928.889a10.65 10.65 0 0 1-1.07.86c-.865.598-1.624.898-2.275.898-.273 0-.5-.075-.678-.225-.18-.15-.269-.31-.269-.483s.008-.311.024-.415c.017-.105.05-.223.103-.357.052-.133.127-.29.224-.469.098-.179.228-.395.391-.65l1.494-2.206L86.121.424a4.74 4.74 0 0 0 1.357 0c-6.211 8.633-9.427 13.113-9.649 13.442-.221.329-.384.576-.488.742a5.11 5.11 0 0 0-.235.406.944.944 0 0 0-.117.41z" fill="#DBA37A"/><path fill-rule="evenodd" clip-rule="evenodd" d="M81.442 15.424c0 .215.157.322.47.322.312 0 .645-.083 1-.249a6.395 6.395 0 0 0 1.055-.63 10.98 10.98 0 0 0 1.01-.835c.326-.303.622-.59.89-.864l.673-.723c.182-.208.306-.345.371-.41l.195.166a12.78 12.78 0 0 0-.395.43c-.192.215-.427.462-.703.742-.277.28-.586.576-.928.889a10.65 10.65 0 0 1-1.07.86c-.865.598-1.624.898-2.275.898-.273 0-.5-.075-.678-.225-.18-.15-.269-.31-.269-.483s.008-.311.025-.415c.016-.105.05-.223.102-.357.052-.133.127-.29.225-.469.097-.179.228-.395.39-.65l1.494-2.206L90.574.424a4.74 4.74 0 0 0 1.357 0c-6.211 8.633-9.427 13.113-9.649 13.442-.221.329-.384.576-.488.742a5.104 5.104 0 0 0-.234.406.943.943 0 0 0-.118.41z" fill="#DBA37A"/></svg>