<svg width="40" height="40" fill="none" xmlns="http://www.w3.org/2000/svg"><path fill-rule="evenodd" clip-rule="evenodd" d="M20 .488C30.776.488 39.512 9.224 39.512 20S30.776 39.512 20 39.512.488 30.776.488 20 9.224.488 20 .488z" fill="#fff"/><path fill-rule="evenodd" clip-rule="evenodd" d="M25.353 19.459l-7.277-4.697c-.215-.131-.482-.11-.684-.11-.807 0-.803.639-.803.8v9.6c0 .137-.004.8.803.8.202 0 .469.022.684-.11l7.277-4.696c.597-.364.494-.794.494-.794s.103-.43-.494-.793z" fill="#A37452"/></svg>